<svg width="16" height="16" xmlns="http://www.w3.org/2000/svg"><path d="M8 8.5l-2-1 0-2 2-1 2 1 0 2Z" fill="#c1ddf6" stroke="#c1ddf6" stroke-width="0.5" stroke-linecap="round" stroke-linejoin="round"/><path d="M5 7l-2-1 0-2 2-1 2 1-2 1Z" fill="#c1ddf6" stroke="#c1ddf6" stroke-width="0.5" stroke-linecap="round" stroke-linejoin="round"/><path d="M8 3.5l-2-1 2-1 2 1Z" fill="#c1ddf6" stroke="#c1ddf6" stroke-width="0.5" stroke-linecap="round" stroke-linejoin="round"/><path d="M11 7l0-2-2-1 2-1 2 1 0 2z" fill="#c1ddf6" stroke="#c1ddf6" stroke-width="0.5" stroke-linecap="round" stroke-linejoin="round"/><path d="M11 10l0-2 2-1 0 0 0 2z" fill="#647791" stroke="#647791" stroke-width="0.5" stroke-linecap="round" stroke-linejoin="round"/><path d="M11 13l0-2 2-1 0 0 0 2z" fill="#1e264b" stroke="#1e264b" stroke-width="0.5" stroke-linecap="round" stroke-linejoin="round"/><path d="M8 11.5l-2-1 0-2 2 1 2-1 0 2Z" fill="#647791" stroke="#647791" stroke-width="0.5" stroke-linecap="round" stroke-linejoin="round"/><path d="M8 14.5l-2-1 0-2 2 1 2-1 0 2Z" fill="#1e264b" stroke="#1e264b" stroke-width="0.5" stroke-linecap="round" stroke-linejoin="round"/><path d="M5 10l-2-1 0-2 2 1Z" fill="#647791" stroke="#647791" stroke-width="0.5" stroke-linecap="round" stroke-linejoin="round"/><path d="M5 13l-2-1 0-2 2 1Z" fill="#1e264b" stroke="#1e264b" stroke-width="0.5" stroke-linecap="round" stroke-linejoin="round"/><line x1="13" y1="13" x2="13" y2="11" stroke="#c1ddf6" stroke-linecap="round"/><line x1="14" y1="12" x2="12" y2="12" stroke="#c1ddf6" stroke-linecap="round"/></svg>